<?xml version="1.0" encoding="UTF-8"?>
<svg id="Calque_1" data-name="Calque 1" xmlns="http://www.w3.org/2000/svg" viewBox="0 0 381.52 479.49">
  <defs>
    <style>
      .cls-1 {
        stroke: #000;
      }

      .cls-1, .cls-2 {
        fill: none;
        stroke-linecap: round;
        stroke-linejoin: round;
        stroke-width: 5px;
      }

      .cls-2 {
        stroke: #1d1d1b;
      }
    </style>
  </defs>
  <path class="cls-2" d="M70.26,384.64s18.57-14.69,11.24-46.44c-1.67-7.22-4.74-14-8.43-20.42-8.57-14.87-27.31-54.86,4.17-76.13,9.08-6.13,20.05-8.65,31-8.57,19.63.14,51.8,5.71,52.74,40.61.43,15.88-6.93,30.81-18.19,42.02-1.58,1.57-3.22,3.35-4.86,5.34-17.26,20.95-16.36,52.44,2.98,71.49,9.91,9.76,24.28,16.11,44.48,9.49,21.43-7.03,37.69-25.35,42.7-47.34.39-1.72.72-3.47.98-5.24,0,0,2.27-34.45,36.87-45.03,12.54-3.84,26.15-3.29,38.53,1.05,13.47,4.72,30.77,14.82,39.21,36.3,5.24,13.33,5.99,28.28.73,41.6-5.19,13.14-17.01,28.09-43.97,29.64,0,0-40.41-4.46-46.54,24.05-1.38,6.4-.28,13.06,2.13,19.15,3.08,7.79,8.26,19.17,12.75,20.77"/>
  <path class="cls-1" d="M2.5,192.17s47.24-2.58,50.38-43.27c0,0,1.53-10.33-2.47-31.68-.96-5.13-2.35-10.2-3.84-15.2-3.88-13.03-11.25-49.42,16.59-76.99C81.98,6.39,109.49-1.43,135.33,4.39c21.52,4.84,48.45,18.86,70.08,55.57,4.87,8.26,8.5,17.29,9.78,26.79,2.08,15.45-.39,37.54-24.22,54.61,0,0-42.79,25.23-51.17,28.74,0,0-53.66,28.32-30.68,74.14,2.23,4.46,26.16,40.45,64.72,22.88,4.72-2.15,9.04-5.11,13.06-8.4,11.3-9.21,40.68-30.75,62.27-9.7,0,0,14.79,12.98,4.91,42.83,0,0-6.72,12.15-9.72,26.58-3.39,16.27,2.99,33.55,17.3,42,4.27,2.52,9.27,4.26,14.9,4.23,0,0,20.11-1.44,29.29-2.89,0,0,2.07-.64,5.54-.87,40.86-2.68,50.96,17.72,54.82,44.8.48,3.38.88,7.04,1.12,10.87.75,11.91,3.88,23.67,10.01,33.9.56.94,1.12,1.82,1.68,2.63"/>
</svg>